<mxfile host="app.diagrams.net" agent="Mozilla/5.0 (Windows NT 10.0; Win64; x64) AppleWebKit/537.36 (KHTML, like Gecko) Chrome/134.0.0.0 Safari/537.36" version="26.1.3">
  <diagram id="R2lEEEUBdFMjLlhIrx00" name="Page-1">
    <mxGraphModel dx="1050" dy="563" grid="1" gridSize="10" guides="1" tooltips="1" connect="1" arrows="1" fold="1" page="1" pageScale="1" pageWidth="850" pageHeight="1100" math="0" shadow="0" extFonts="Permanent Marker^https://fonts.googleapis.com/css?family=Permanent+Marker">
      <root>
        <mxCell id="0" />
        <mxCell id="1" parent="0" />
        <mxCell id="LjK5r2hwDOXoXsAepClc-1" value="Department" style="whiteSpace=wrap;html=1;align=center;" vertex="1" parent="1">
          <mxGeometry x="610" y="120" width="100" height="40" as="geometry" />
        </mxCell>
        <mxCell id="LjK5r2hwDOXoXsAepClc-2" value="Employee" style="whiteSpace=wrap;html=1;align=center;" vertex="1" parent="1">
          <mxGeometry x="170" y="120" width="100" height="40" as="geometry" />
        </mxCell>
        <mxCell id="LjK5r2hwDOXoXsAepClc-3" value="Project" style="whiteSpace=wrap;html=1;align=center;" vertex="1" parent="1">
          <mxGeometry x="610" y="380" width="100" height="40" as="geometry" />
        </mxCell>
        <mxCell id="LjK5r2hwDOXoXsAepClc-4" value="&lt;u&gt;Emp_ID&lt;/u&gt;" style="ellipse;whiteSpace=wrap;html=1;align=center;" vertex="1" parent="1">
          <mxGeometry x="290" y="40" width="100" height="40" as="geometry" />
        </mxCell>
        <mxCell id="LjK5r2hwDOXoXsAepClc-6" value="Designation" style="ellipse;whiteSpace=wrap;html=1;align=center;" vertex="1" parent="1">
          <mxGeometry x="30" y="130" width="100" height="40" as="geometry" />
        </mxCell>
        <mxCell id="LjK5r2hwDOXoXsAepClc-7" value="Name" style="ellipse;whiteSpace=wrap;html=1;align=center;" vertex="1" parent="1">
          <mxGeometry x="40" y="60" width="100" height="40" as="geometry" />
        </mxCell>
        <mxCell id="LjK5r2hwDOXoXsAepClc-8" value="&lt;span style=&quot;border-bottom: 1px dotted&quot;&gt;Dept_ID&lt;/span&gt;" style="ellipse;whiteSpace=wrap;html=1;align=center;" vertex="1" parent="1">
          <mxGeometry x="80" y="210" width="100" height="40" as="geometry" />
        </mxCell>
        <mxCell id="LjK5r2hwDOXoXsAepClc-9" value="Salary" style="ellipse;whiteSpace=wrap;html=1;align=center;" vertex="1" parent="1">
          <mxGeometry x="160" y="40" width="100" height="40" as="geometry" />
        </mxCell>
        <mxCell id="LjK5r2hwDOXoXsAepClc-10" value="Dept_ID" style="ellipse;whiteSpace=wrap;html=1;align=center;" vertex="1" parent="1">
          <mxGeometry x="540" y="50" width="100" height="35" as="geometry" />
        </mxCell>
        <mxCell id="LjK5r2hwDOXoXsAepClc-11" value="Location" style="ellipse;whiteSpace=wrap;html=1;align=center;" vertex="1" parent="1">
          <mxGeometry x="740" y="125" width="100" height="35" as="geometry" />
        </mxCell>
        <mxCell id="LjK5r2hwDOXoXsAepClc-12" value="Dept_Name" style="ellipse;whiteSpace=wrap;html=1;align=center;" vertex="1" parent="1">
          <mxGeometry x="700" y="50" width="100" height="35" as="geometry" />
        </mxCell>
        <mxCell id="LjK5r2hwDOXoXsAepClc-14" value="End_Date" style="ellipse;whiteSpace=wrap;html=1;align=center;" vertex="1" parent="1">
          <mxGeometry x="500" y="460" width="100" height="40" as="geometry" />
        </mxCell>
        <mxCell id="LjK5r2hwDOXoXsAepClc-15" value="Start_Date" style="ellipse;whiteSpace=wrap;html=1;align=center;" vertex="1" parent="1">
          <mxGeometry x="630" y="490" width="100" height="40" as="geometry" />
        </mxCell>
        <mxCell id="LjK5r2hwDOXoXsAepClc-16" value="Project_Name" style="ellipse;whiteSpace=wrap;html=1;align=center;" vertex="1" parent="1">
          <mxGeometry x="750" y="440" width="100" height="40" as="geometry" />
        </mxCell>
        <mxCell id="LjK5r2hwDOXoXsAepClc-17" value="&lt;u&gt;Project_ID&lt;/u&gt;" style="ellipse;whiteSpace=wrap;html=1;align=center;" vertex="1" parent="1">
          <mxGeometry x="760" y="340" width="100" height="40" as="geometry" />
        </mxCell>
        <mxCell id="LjK5r2hwDOXoXsAepClc-18" value="Belongs to" style="shape=rhombus;perimeter=rhombusPerimeter;whiteSpace=wrap;html=1;align=center;" vertex="1" parent="1">
          <mxGeometry x="365" y="110" width="120" height="60" as="geometry" />
        </mxCell>
        <mxCell id="LjK5r2hwDOXoXsAepClc-19" value="Employee_Project" style="shape=rhombus;perimeter=rhombusPerimeter;whiteSpace=wrap;html=1;align=center;rotation=30;" vertex="1" parent="1">
          <mxGeometry x="326.66" y="265.99" width="133.34" height="74.01" as="geometry" />
        </mxCell>
        <mxCell id="LjK5r2hwDOXoXsAepClc-22" value="Role" style="ellipse;whiteSpace=wrap;html=1;align=center;" vertex="1" parent="1">
          <mxGeometry x="200" y="300" width="100" height="40" as="geometry" />
        </mxCell>
        <mxCell id="LjK5r2hwDOXoXsAepClc-24" value="Hours_Worked" style="ellipse;whiteSpace=wrap;html=1;align=center;" vertex="1" parent="1">
          <mxGeometry x="460" y="230" width="100" height="40" as="geometry" />
        </mxCell>
        <mxCell id="LjK5r2hwDOXoXsAepClc-25" value="" style="endArrow=none;html=1;rounded=0;exitX=1;exitY=0.5;exitDx=0;exitDy=0;entryX=0;entryY=0.5;entryDx=0;entryDy=0;" edge="1" parent="1" source="LjK5r2hwDOXoXsAepClc-2" target="LjK5r2hwDOXoXsAepClc-18">
          <mxGeometry relative="1" as="geometry">
            <mxPoint x="360" y="230" as="sourcePoint" />
            <mxPoint x="520" y="230" as="targetPoint" />
          </mxGeometry>
        </mxCell>
        <mxCell id="LjK5r2hwDOXoXsAepClc-26" value="" style="endArrow=none;html=1;rounded=0;entryX=0;entryY=0.5;entryDx=0;entryDy=0;exitX=1;exitY=0.5;exitDx=0;exitDy=0;" edge="1" parent="1" source="LjK5r2hwDOXoXsAepClc-18" target="LjK5r2hwDOXoXsAepClc-1">
          <mxGeometry width="50" height="50" relative="1" as="geometry">
            <mxPoint x="410" y="250" as="sourcePoint" />
            <mxPoint x="460" y="200" as="targetPoint" />
          </mxGeometry>
        </mxCell>
        <mxCell id="LjK5r2hwDOXoXsAepClc-28" value="" style="endArrow=none;html=1;rounded=0;exitX=0;exitY=0.5;exitDx=0;exitDy=0;entryX=0.25;entryY=1;entryDx=0;entryDy=0;" edge="1" parent="1" source="LjK5r2hwDOXoXsAepClc-19" target="LjK5r2hwDOXoXsAepClc-2">
          <mxGeometry width="50" height="50" relative="1" as="geometry">
            <mxPoint x="210" y="210" as="sourcePoint" />
            <mxPoint x="260" y="160" as="targetPoint" />
          </mxGeometry>
        </mxCell>
        <mxCell id="LjK5r2hwDOXoXsAepClc-31" value="" style="endArrow=none;html=1;rounded=0;exitX=1;exitY=0.5;exitDx=0;exitDy=0;entryX=0;entryY=0.75;entryDx=0;entryDy=0;" edge="1" parent="1" source="LjK5r2hwDOXoXsAepClc-19" target="LjK5r2hwDOXoXsAepClc-3">
          <mxGeometry width="50" height="50" relative="1" as="geometry">
            <mxPoint x="560" y="440" as="sourcePoint" />
            <mxPoint x="610" y="390" as="targetPoint" />
          </mxGeometry>
        </mxCell>
        <mxCell id="LjK5r2hwDOXoXsAepClc-32" value="" style="endArrow=none;html=1;rounded=0;exitX=0.423;exitY=-0.037;exitDx=0;exitDy=0;exitPerimeter=0;" edge="1" parent="1" source="LjK5r2hwDOXoXsAepClc-2">
          <mxGeometry width="50" height="50" relative="1" as="geometry">
            <mxPoint x="210" y="110" as="sourcePoint" />
            <mxPoint x="220" y="80" as="targetPoint" />
          </mxGeometry>
        </mxCell>
        <mxCell id="LjK5r2hwDOXoXsAepClc-33" value="" style="endArrow=none;html=1;rounded=0;exitX=0.843;exitY=-0.021;exitDx=0;exitDy=0;exitPerimeter=0;" edge="1" parent="1" source="LjK5r2hwDOXoXsAepClc-2">
          <mxGeometry width="50" height="50" relative="1" as="geometry">
            <mxPoint x="270" y="130" as="sourcePoint" />
            <mxPoint x="320" y="80" as="targetPoint" />
          </mxGeometry>
        </mxCell>
        <mxCell id="LjK5r2hwDOXoXsAepClc-34" value="" style="endArrow=none;html=1;rounded=0;" edge="1" parent="1">
          <mxGeometry width="50" height="50" relative="1" as="geometry">
            <mxPoint x="180" y="120" as="sourcePoint" />
            <mxPoint x="130" y="90" as="targetPoint" />
          </mxGeometry>
        </mxCell>
        <mxCell id="LjK5r2hwDOXoXsAepClc-35" value="" style="endArrow=none;html=1;rounded=0;exitX=0.917;exitY=0.762;exitDx=0;exitDy=0;exitPerimeter=0;" edge="1" parent="1" source="LjK5r2hwDOXoXsAepClc-6">
          <mxGeometry width="50" height="50" relative="1" as="geometry">
            <mxPoint x="120" y="200" as="sourcePoint" />
            <mxPoint x="170" y="150" as="targetPoint" />
          </mxGeometry>
        </mxCell>
        <mxCell id="LjK5r2hwDOXoXsAepClc-36" value="" style="endArrow=none;html=1;rounded=0;" edge="1" parent="1">
          <mxGeometry width="50" height="50" relative="1" as="geometry">
            <mxPoint x="140" y="210" as="sourcePoint" />
            <mxPoint x="190" y="160" as="targetPoint" />
          </mxGeometry>
        </mxCell>
        <mxCell id="LjK5r2hwDOXoXsAepClc-37" value="" style="endArrow=none;html=1;rounded=0;" edge="1" parent="1">
          <mxGeometry width="50" height="50" relative="1" as="geometry">
            <mxPoint x="422" y="290" as="sourcePoint" />
            <mxPoint x="470" y="260" as="targetPoint" />
          </mxGeometry>
        </mxCell>
        <mxCell id="LjK5r2hwDOXoXsAepClc-38" value="" style="endArrow=none;html=1;rounded=0;exitX=1;exitY=0.5;exitDx=0;exitDy=0;entryX=0;entryY=1;entryDx=0;entryDy=0;" edge="1" parent="1" source="LjK5r2hwDOXoXsAepClc-22" target="LjK5r2hwDOXoXsAepClc-19">
          <mxGeometry width="50" height="50" relative="1" as="geometry">
            <mxPoint x="300" y="350" as="sourcePoint" />
            <mxPoint x="350" y="300" as="targetPoint" />
          </mxGeometry>
        </mxCell>
        <mxCell id="LjK5r2hwDOXoXsAepClc-39" value="" style="endArrow=none;html=1;rounded=0;" edge="1" parent="1">
          <mxGeometry width="50" height="50" relative="1" as="geometry">
            <mxPoint x="590" y="470" as="sourcePoint" />
            <mxPoint x="640" y="420" as="targetPoint" />
          </mxGeometry>
        </mxCell>
        <mxCell id="LjK5r2hwDOXoXsAepClc-40" value="" style="endArrow=none;html=1;rounded=0;exitX=1;exitY=0.25;exitDx=0;exitDy=0;" edge="1" parent="1" source="LjK5r2hwDOXoXsAepClc-3">
          <mxGeometry width="50" height="50" relative="1" as="geometry">
            <mxPoint x="710" y="410" as="sourcePoint" />
            <mxPoint x="760" y="360" as="targetPoint" />
          </mxGeometry>
        </mxCell>
        <mxCell id="LjK5r2hwDOXoXsAepClc-41" value="" style="endArrow=none;html=1;rounded=0;exitX=0.09;exitY=0.229;exitDx=0;exitDy=0;exitPerimeter=0;" edge="1" parent="1" source="LjK5r2hwDOXoXsAepClc-16">
          <mxGeometry width="50" height="50" relative="1" as="geometry">
            <mxPoint x="660" y="470" as="sourcePoint" />
            <mxPoint x="710" y="420" as="targetPoint" />
          </mxGeometry>
        </mxCell>
        <mxCell id="LjK5r2hwDOXoXsAepClc-42" value="" style="endArrow=none;html=1;rounded=0;exitX=0.43;exitY=-0.071;exitDx=0;exitDy=0;exitPerimeter=0;" edge="1" parent="1" source="LjK5r2hwDOXoXsAepClc-15">
          <mxGeometry width="50" height="50" relative="1" as="geometry">
            <mxPoint x="630" y="470" as="sourcePoint" />
            <mxPoint x="680" y="420" as="targetPoint" />
          </mxGeometry>
        </mxCell>
        <mxCell id="LjK5r2hwDOXoXsAepClc-43" value="1" style="text;html=1;align=center;verticalAlign=middle;resizable=0;points=[];autosize=1;strokeColor=none;fillColor=none;" vertex="1" parent="1">
          <mxGeometry x="315" y="118" width="30" height="30" as="geometry" />
        </mxCell>
        <mxCell id="LjK5r2hwDOXoXsAepClc-44" value="M" style="text;html=1;align=center;verticalAlign=middle;resizable=0;points=[];autosize=1;strokeColor=none;fillColor=none;" vertex="1" parent="1">
          <mxGeometry x="525" y="118" width="30" height="30" as="geometry" />
        </mxCell>
        <mxCell id="LjK5r2hwDOXoXsAepClc-45" value="M" style="text;html=1;align=center;verticalAlign=middle;resizable=0;points=[];autosize=1;strokeColor=none;fillColor=none;rotation=15;" vertex="1" parent="1">
          <mxGeometry x="265" y="198" width="30" height="30" as="geometry" />
        </mxCell>
        <mxCell id="LjK5r2hwDOXoXsAepClc-46" value="N" style="text;html=1;align=center;verticalAlign=middle;resizable=0;points=[];autosize=1;strokeColor=none;fillColor=none;rotation=30;" vertex="1" parent="1">
          <mxGeometry x="495" y="340" width="30" height="30" as="geometry" />
        </mxCell>
        <mxCell id="LjK5r2hwDOXoXsAepClc-48" value="" style="endArrow=none;html=1;rounded=0;entryX=0.732;entryY=0.954;entryDx=0;entryDy=0;entryPerimeter=0;exitX=0.25;exitY=0;exitDx=0;exitDy=0;" edge="1" parent="1" source="LjK5r2hwDOXoXsAepClc-1" target="LjK5r2hwDOXoXsAepClc-10">
          <mxGeometry width="50" height="50" relative="1" as="geometry">
            <mxPoint x="570" y="130" as="sourcePoint" />
            <mxPoint x="610" y="90" as="targetPoint" />
          </mxGeometry>
        </mxCell>
        <mxCell id="LjK5r2hwDOXoXsAepClc-49" value="" style="endArrow=none;html=1;rounded=0;exitX=0.664;exitY=0.025;exitDx=0;exitDy=0;exitPerimeter=0;" edge="1" parent="1" source="LjK5r2hwDOXoXsAepClc-1">
          <mxGeometry width="50" height="50" relative="1" as="geometry">
            <mxPoint x="670" y="130" as="sourcePoint" />
            <mxPoint x="720" y="80" as="targetPoint" />
          </mxGeometry>
        </mxCell>
        <mxCell id="LjK5r2hwDOXoXsAepClc-50" value="" style="endArrow=none;html=1;rounded=0;exitX=1;exitY=0.5;exitDx=0;exitDy=0;" edge="1" parent="1" source="LjK5r2hwDOXoXsAepClc-1">
          <mxGeometry width="50" height="50" relative="1" as="geometry">
            <mxPoint x="690" y="190" as="sourcePoint" />
            <mxPoint x="740" y="140" as="targetPoint" />
          </mxGeometry>
        </mxCell>
      </root>
    </mxGraphModel>
  </diagram>
</mxfile>
